HIERARCHY
ROOT Hips
{
	OFFSET 0.0000 0.0000 0.0000
	CHANNELS 6 Xposition Yposition Zposition Zrotation Xrotation Yrotation
	JOINT Ab
	{
		OFFSET -0.0000 8.0846 -0.0000
		CHANNELS 3 Zrotation Xrotation Yrotation
		JOINT Chest
		{
			OFFSET -0.0000 25.0068 -0.0000
			CHANNELS 3 Zrotation Xrotation Yrotation
			JOINT Neck
			{
				OFFSET -0.0000 25.0068 0.0000
				CHANNELS 3 Zrotation Xrotation Yrotation
				JOINT Head
				{
					OFFSET -0.0000 10.7556 0.0000
					CHANNELS 3 Zrotation Xrotation Yrotation
					End Site
					{
						OFFSET -0.0000 16.6222 0.0000
					}
				}
			}
			JOINT LeftCollar
			{
				OFFSET -0.0000 25.0068 0.0000
				CHANNELS 3 Zrotation Xrotation Yrotation
				JOINT LeftShoulder
				{
					OFFSET 19.5556 -0.0000 0.0000
					CHANNELS 3 Zrotation Xrotation Yrotation
					JOINT LeftElbow
					{
						OFFSET 27.1828 0.0000 0.0000
						CHANNELS 3 Zrotation Xrotation Yrotation
						JOINT LeftWrist
						{
							OFFSET 23.3157 0.0000 0.0000
							CHANNELS 3 Zrotation Xrotation Yrotation
							End Site
							{
								OFFSET 0.0000 -14.6667 0.0000
							}
						}
					}
				}
			}
			JOINT RightCollar
			{
				OFFSET -0.0000 25.0068 0.0000
				CHANNELS 3 Zrotation Xrotation Yrotation
				JOINT RightShoulder
				{
					OFFSET -19.5556 0.0000 0.0000
					CHANNELS 3 Zrotation Xrotation Yrotation
					JOINT RightElbow
					{
						OFFSET -27.1828 0.0000 0.0000
						CHANNELS 3 Zrotation Xrotation Yrotation
						JOINT RightWrist
						{
							OFFSET -23.3157 0.0000 0.0000
							CHANNELS 3 Zrotation Xrotation Yrotation
							End Site
							{
								OFFSET -0.0000 -14.6667 0.0000
							}
						}
					}
				}
			}
		}
	}
	JOINT LeftHip
	{
		OFFSET 11.7333 0.0000 0.0000
		CHANNELS 3 Zrotation Xrotation Yrotation
		JOINT LeftKnee
		{
			OFFSET -0.0000 -40.8688 0.0000
			CHANNELS 3 Zrotation Xrotation Yrotation
			JOINT LeftAnkle
			{
				OFFSET -0.0000 -44.4337 0.0000
				CHANNELS 3 Zrotation Xrotation Yrotation
				End Site
				{
					OFFSET -0.0000 -4.8889 16.6222
				}
			}
		}
	}
	JOINT RightHip
	{
		OFFSET -11.7333 0.0000 0.0000
		CHANNELS 3 Zrotation Xrotation Yrotation
		JOINT RightKnee
		{
			OFFSET -0.0000 -40.8688 0.0000
			CHANNELS 3 Zrotation Xrotation Yrotation
			JOINT RightAnkle
			{
				OFFSET -0.0000 -44.4337 0.0000
				CHANNELS 3 Zrotation Xrotation Yrotation
				End Site
				{
					OFFSET -0.0000 -4.8889 16.6222
				}
			}
		}
	}
}
MOTION
Frames: 14
Frame Time: 0.010000
-7.2579 87.6719 57.8857 3.4811 0.1164 173.4834 358.3801 2.5341 356.9343 3.1846 11.6255 356.5726 8.5063 337.9251 5.1074 356.7638 5.1941 3.5997 339.1926 358.5487 7.8989 312.3615 39.4395 341.5731 24.4810 352.3208 326.0157 82.0328 358.2618 351.9322 21.0980 358.8638 353.8431 62.1258 37.4278 5.2332 339.3151 354.5420 29.2939 280.2145 353.7932 23.2009 359.7078 2.4285 354.0517 357.7250 8.5756 358.6250 2.5007 351.4425 23.9265 3.4383 334.3261 3.8322 1.3363 33.5430 1.1968 355.1215 351.1105 341.9945 
-7.2043 87.6250 57.5935 3.4839 0.1851 173.5814 358.3929 2.6946 356.8988 3.2364 11.7266 356.5278 8.5675 337.8304 5.1060 356.7725 5.0987 3.5782 339.1496 358.5165 8.0632 312.9617 40.3484 341.0253 24.9585 352.1863 326.3382 81.9607 358.2023 352.4607 21.0591 358.8306 353.7769 62.2275 37.3057 5.1140 339.3566 354.5726 29.2906 280.2695 353.8717 23.2692 359.7460 2.6712 353.9907 357.6403 8.6087 358.5220 2.6531 351.3441 23.9925 3.5044 334.3325 3.9361 1.1013 31.9233 1.2557 355.4084 351.7971 342.4120 
-7.1837 87.5702 57.3590 3.3600 0.0224 173.7261 358.3607 2.6849 356.8429 3.2414 11.7493 356.4701 8.6208 337.7789 5.0845 356.8076 4.9480 3.5337 339.1518 358.5094 8.0086 313.1135 40.4518 340.8913 24.9344 352.2836 326.3211 81.8893 358.2177 352.4260 21.0323 358.8468 353.7217 62.3554 37.0685 4.9498 339.5316 354.6241 29.2839 280.2153 353.9333 23.4022 359.6412 2.5888 353.9991 357.6342 8.7029 358.3805 2.6178 351.1494 23.9986 3.4291 334.0017 3.9288 0.8887 30.4583 1.5737 356.0924 352.1431 342.7757 
-7.1804 87.5103 57.1173 3.1823 359.8338 173.8283 358.3229 2.6432 356.8242 3.1908 11.7614 356.4557 8.6628 337.7234 5.0733 356.8605 4.8432 3.5057 339.1666 358.5359 7.9333 313.1111 40.2902 340.8904 24.7483 352.3953 326.1590 81.9385 358.2895 352.2898 21.0040 358.8249 353.7073 62.5092 36.9477 4.7251 339.5642 354.6150 29.2488 280.2715 353.8461 23.4487 359.4683 2.4776 354.0888 357.6653 8.8265 358.1120 2.5688 350.9269 24.0905 3.3147 333.6137 3.9763 0.7615 29.0937 1.5813 358.0421 352.2818 341.2472 
-7.1264 87.4505 56.7633 3.1420 0.0051 173.8927 358.3432 2.8379 356.8286 3.1674 11.8955 356.4566 8.6854 337.6953 5.0463 356.9051 4.7235 3.4653 339.1689 358.5453 7.8693 313.0798 40.1730 340.8982 24.6109 352.4027 326.0143 81.9134 358.3928 352.0273 20.9815 358.8290 353.6818 62.6436 36.8061 4.4963 339.6987 354.6765 29.0826 280.2044 353.4841 23.5667 359.4399 2.9099 354.2258 357.6560 8.8045 357.6944 2.7057 350.7253 24.3302 3.3247 333.7854 4.1569 0.6937 27.5650 1.5105 359.2410 352.3725 338.4556 
-7.1082 87.3849 56.4878 2.9727 359.8973 174.0364 358.3205 2.8713 356.7991 3.1118 11.8929 356.4314 8.7271 337.6435 4.9852 356.8870 4.6386 3.3860 339.1939 358.5857 7.5851 312.6532 39.4632 341.3347 24.1512 352.5391 325.5772 81.9102 358.5669 351.3560 20.9794 358.8251 353.5962 62.7654 36.6616 4.2868 339.7617 354.7289 29.0104 280.2247 353.3712 23.5921 359.2882 2.9252 354.1875 357.6513 8.8407 357.9443 2.9604 350.6052 24.0710 3.1592 333.5600 4.2421 0.6858 26.1928 1.9222 356.9790 352.9069 342.6943 
-7.0705 87.3173 56.1903 2.8281 359.8228 174.1681 358.2925 2.8925 356.7920 3.0719 11.9550 356.4258 8.7662 337.5962 4.9466 356.9211 4.5497 3.3335 339.2637 358.6484 7.2725 312.0167 38.4360 341.8868 23.5380 352.6832 324.9690 81.9953 358.7522 350.4148 20.9583 358.8066 353.5363 62.8973 36.5370 4.0856 339.8321 354.7310 29.0116 280.2931 353.5761 23.6332 359.1624 2.9939 354.2738 357.6671 8.8923 357.9269 2.9006 350.4025 23.8871 3.0353 333.3932 4.3878 0.6620 24.9292 1.8423 357.1615 353.0163 342.7363 
-7.0042 87.2509 55.8462 2.7309 359.8596 174.2650 358.2672 2.9701 356.8051 3.0665 12.0723 356.4341 8.7676 337.5312 4.9028 356.9759 4.4915 3.2806 339.2982 358.6883 7.1277 311.7194 37.9642 342.0565 23.1973 352.6959 324.7526 81.9029 358.8086 349.7280 20.9236 358.7992 353.4904 63.0539 36.3576 3.8587 339.9344 354.7578 29.0021 280.3475 353.7516 23.8103 359.0958 3.2510 354.3935 357.6671 8.8847 357.7988 2.6813 350.0803 23.7848 2.9700 333.4016 4.5776 0.6453 23.7304 1.6310 356.9558 353.0337 342.9664 
-6.9439 87.1792 55.4963 2.5988 359.8691 174.3870 358.2348 3.0267 356.8042 3.0489 12.1629 356.4308 8.7732 337.4787 4.8444 356.9821 4.4488 3.2137 339.2942 358.7108 6.9944 311.4929 37.6304 342.2047 22.9174 352.7175 324.6245 81.9292 358.8530 349.2412 20.8962 358.7944 353.4442 63.2274 36.1262 3.5945 340.0577 354.7979 28.9316 280.3208 353.6759 24.0137 358.9897 3.5037 354.4003 357.6701 8.8256 357.7393 2.3896 349.7495 23.6676 2.8435 333.3855 4.7658 0.6558 22.6095 1.3701 356.4815 352.9527 343.0811 
-6.8829 87.1136 55.1514 2.4316 359.8315 174.5193 358.1735 3.0452 356.8117 3.0181 12.2507 356.4378 8.8054 337.4240 4.7934 356.9832 4.3686 3.1486 339.2794 358.7295 6.9347 311.4087 37.5291 342.1979 22.7476 352.7285 324.6617 81.9203 358.8665 348.9311 20.8858 358.7798 353.3961 63.3625 35.9412 3.3496 340.1555 354.8282 28.9221 280.4055 353.7594 24.1980 358.8773 3.6802 354.3656 357.6295 8.8093 357.6554 2.0332 349.4369 23.6073 2.6823 333.3147 4.9948 0.6759 21.6005 1.2235 356.5529 352.6981 342.8312 
-6.8090 87.0434 54.7808 2.2832 359.8255 174.6685 358.1242 3.0895 356.8225 2.9897 12.2919 356.4480 8.8592 337.4625 4.7326 356.9503 4.2321 3.0760 339.2655 358.7690 6.6169 310.8246 36.5617 342.7747 22.1910 352.9095 324.2584 82.0061 359.0720 348.1920 20.9004 358.7614 353.3445 63.4950 35.7436 3.0616 340.2508 354.8903 28.8495 280.5590 353.7405 24.4848 358.8017 3.9240 354.2573 357.5597 8.7647 357.5822 1.9469 349.1955 23.6549 2.5396 333.3183 5.4169 0.7690 20.6605 0.9922 356.4895 352.4433 342.8029 
-6.7157 86.9766 54.4305 2.1781 359.7054 174.8090 358.1044 3.0594 356.8316 2.9999 12.3225 356.4555 8.8386 337.4198 4.6719 357.0219 4.1644 3.0128 339.2600 358.7998 6.4253 310.4067 35.9115 343.1174 21.7210 353.0259 324.0907 82.1408 359.0817 347.5113 20.8789 358.7453 353.2903 63.6336 35.5392 2.8027 340.3685 354.9282 28.7528 280.7559 353.6290 24.8540 358.7700 4.0394 354.2528 357.5380 8.7348 357.5307 1.9317 349.0987 23.6073 2.4861 333.1823 5.7475 0.7617 19.9012 1.3036 356.5670 352.1698 342.3950 
-6.6148 86.9078 54.0513 2.0787 359.6406 174.9532 358.0734 3.0218 356.8441 3.0301 12.4699 356.4603 8.8426 337.2853 4.6281 357.0317 4.1435 2.9567 339.2434 358.8207 6.4276 310.3094 35.8995 343.0853 21.6402 352.9850 324.2281 82.0026 359.0456 347.3183 20.8341 358.7741 353.2194 63.7086 35.3478 2.6664 340.5685 355.0039 28.6762 280.9582 353.6676 25.1649 358.7372 4.2387 354.3032 357.5483 8.6910 357.4716 1.8112 348.9558 23.4487 2.4409 333.0967 6.0015 0.7354 19.3225 1.1716 356.4920 351.9935 342.3706 
-6.5104 86.8320 53.6341 1.9857 359.7095 175.1133 358.0591 3.1093 356.8595 3.0376 12.6055 356.4693 8.8591 337.1756 4.5670 356.9990 4.1061 2.8809 339.1734 358.8288 6.5084 310.4406 36.4050 342.9214 21.8715 352.8495 324.5741 81.8680 359.0197 347.5368 20.7684 358.7578 353.1582 63.8817 35.2029 2.4524 340.6227 355.0277 28.5930 281.1324 353.5663 25.4017 358.7044 4.6083 354.3109 357.5494 8.6304 357.4460 1.6694 348.6961 23.2775 2.3561 333.1925 6.2309 0.7750 18.7823 0.9048 356.5271 351.8391 342.3813 
